<?xml version="1.0" encoding="utf-8"?>
<!-- Generator: Adobe Illustrator 16.0.0, SVG Export Plug-In . SVG Version: 6.00 Build 0)  -->
<!DOCTYPE svg PUBLIC "-//W3C//DTD SVG 1.1//EN" "http://www.w3.org/Graphics/SVG/1.1/DTD/svg11.dtd">
<svg version="1.1" id="Layer_1" xmlns="http://www.w3.org/2000/svg" xmlns:xlink="http://www.w3.org/1999/xlink" x="0px" y="0px"
	 width="80px" height="80px" viewBox="0 0 80 80" enable-background="new 0 0 80 80" xml:space="preserve">
<title>Shape_3</title>
<desc>Created with Sketch.</desc>
<g id="Main-_xD83D__xDD25__xD83D__xDD25__xD83D__xDD25_">
	<g id="_x30_1---Integrations-Copy" transform="translate(-959.000000, -2214.000000)">
		<g id="Bloc_x2F_Ready_x5F_Get_x5F_Started_x5F_2" transform="translate(0.000000, 1933.000000)">
			<g id="Bloc" transform="translate(120.000000, 120.000000)">
				<g id="Shape_3" transform="translate(839.000000, 161.000000)">
					<circle id="Oval-2" fill="#FFC239" cx="1.481" cy="1.481" r="1.481"/>
					<circle id="Oval-2_1_" fill="#FFC239" cx="1.481" cy="14.321" r="1.482"/>
					<circle id="Oval-2_2_" fill="#FFC239" cx="1.481" cy="27.161" r="1.481"/>
					<circle id="Oval-2_3_" fill="#FFC239" cx="1.481" cy="40" r="1.481"/>
					<circle id="Oval-2_4_" fill="#FFC239" cx="1.481" cy="52.839" r="1.481"/>
					<circle id="Oval-2_5_" fill="#FFC239" cx="1.481" cy="65.679" r="1.481"/>
					<circle id="Oval-2_6_" fill="#FFC239" cx="1.481" cy="78.519" r="1.481"/>
					<circle id="Oval-2_7_" fill="#FFC239" cx="14.321" cy="1.481" r="1.481"/>
					<circle id="Oval-2_8_" fill="#FFC239" cx="14.321" cy="14.321" r="1.482"/>
					<circle id="Oval-2_9_" fill="#FFC239" cx="14.321" cy="27.161" r="1.481"/>
					<circle id="Oval-2_10_" fill="#FFC239" cx="14.321" cy="40" r="1.481"/>
					<circle id="Oval-2_11_" fill="#FFC239" cx="14.321" cy="52.839" r="1.481"/>
					<circle id="Oval-2_12_" fill="#FFC239" cx="14.321" cy="65.679" r="1.481"/>
					<circle id="Oval-2_13_" fill="#FFC239" cx="14.321" cy="78.519" r="1.481"/>
					<circle id="Oval-2_14_" fill="#FFC239" cx="27.161" cy="1.481" r="1.481"/>
					<circle id="Oval-2_15_" fill="#FFC239" cx="27.161" cy="14.321" r="1.482"/>
					<circle id="Oval-2_16_" fill="#FFC239" cx="27.161" cy="27.161" r="1.481"/>
					<circle id="Oval-2_17_" fill="#FFC239" cx="27.161" cy="40" r="1.481"/>
					<circle id="Oval-2_18_" fill="#FFC239" cx="27.161" cy="52.839" r="1.481"/>
					<circle id="Oval-2_19_" fill="#FFC239" cx="27.161" cy="65.679" r="1.481"/>
					<circle id="Oval-2_20_" fill="#FFC239" cx="27.161" cy="78.519" r="1.481"/>
					<circle id="Oval-2_21_" fill="#FFC239" cx="40" cy="1.481" r="1.481"/>
					<circle id="Oval-2_22_" fill="#FFC239" cx="40" cy="14.321" r="1.482"/>
					<circle id="Oval-2_23_" fill="#FFC239" cx="40" cy="27.161" r="1.481"/>
					<circle id="Oval-2_24_" fill="#FFC239" cx="40" cy="40" r="1.481"/>
					<circle id="Oval-2_25_" fill="#FFC239" cx="40" cy="52.839" r="1.481"/>
					<circle id="Oval-2_26_" fill="#FFC239" cx="40" cy="65.679" r="1.481"/>
					<circle id="Oval-2_27_" fill="#FFC239" cx="40" cy="78.519" r="1.481"/>
					<circle id="Oval-2_28_" fill="#FFC239" cx="52.84" cy="1.481" r="1.481"/>
					<circle id="Oval-2_29_" fill="#FFC239" cx="52.84" cy="14.321" r="1.482"/>
					<circle id="Oval-2_30_" fill="#FFC239" cx="52.84" cy="27.161" r="1.481"/>
					<circle id="Oval-2_31_" fill="#FFC239" cx="52.84" cy="40" r="1.481"/>
					<circle id="Oval-2_32_" fill="#FFC239" cx="52.84" cy="52.839" r="1.481"/>
					<circle id="Oval-2_33_" fill="#FFC239" cx="52.84" cy="65.679" r="1.481"/>
					<circle id="Oval-2_34_" fill="#FFC239" cx="52.84" cy="78.519" r="1.481"/>
					<circle id="Oval-2_35_" fill="#FFC239" cx="65.68" cy="1.481" r="1.481"/>
					<circle id="Oval-2_36_" fill="#FFC239" cx="65.68" cy="14.321" r="1.482"/>
					<circle id="Oval-2_37_" fill="#FFC239" cx="65.68" cy="27.161" r="1.481"/>
					<circle id="Oval-2_38_" fill="#FFC239" cx="65.68" cy="40" r="1.481"/>
					<circle id="Oval-2_39_" fill="#FFC239" cx="65.68" cy="52.839" r="1.481"/>
					<circle id="Oval-2_40_" fill="#FFC239" cx="65.68" cy="65.679" r="1.481"/>
					<circle id="Oval-2_41_" fill="#FFC239" cx="65.68" cy="78.519" r="1.481"/>
					<circle id="Oval-2_42_" fill="#FFC239" cx="78.519" cy="1.481" r="1.481"/>
					<circle id="Oval-2_43_" fill="#FFC239" cx="78.519" cy="14.321" r="1.482"/>
					<circle id="Oval-2_44_" fill="#FFC239" cx="78.519" cy="27.161" r="1.481"/>
					<circle id="Oval-2_45_" fill="#FFC239" cx="78.519" cy="40" r="1.481"/>
					<circle id="Oval-2_46_" fill="#FFC239" cx="78.519" cy="52.839" r="1.481"/>
					<circle id="Oval-2_47_" fill="#FFC239" cx="78.519" cy="65.679" r="1.481"/>
					<circle id="Oval-2_48_" fill="#FFC239" cx="78.519" cy="78.519" r="1.481"/>
				</g>
			</g>
		</g>
	</g>
</g>
</svg>
